<?xml version="1.0" standalone="no"?>
<!DOCTYPE svg PUBLIC "-//W3C//DTD SVG 20010904//EN"
 "http://www.w3.org/TR/2001/REC-SVG-20010904/DTD/svg10.dtd">
<svg version="1.0" xmlns="http://www.w3.org/2000/svg"
 width="350.000000pt" height="336.000000pt" viewBox="0 0 350.000000 336.000000"
 preserveAspectRatio="xMidYMid meet">

<g transform="translate(0.000000,336.000000) scale(0.100000,-0.100000)"
fill="#000000" stroke="none">
<path d="M2730 2562 c0 -14 -11 -29 -31 -41 l-30 -19 25 -6 c15 -4 28 -17 33
-33 l10 -28 6 27 c5 20 16 30 40 36 l32 8 -28 8 c-19 4 -33 18 -42 39 -12 27
-14 29 -15 9z"/>
<path d="M2597 2471 c-8 -63 -34 -93 -98 -112 l-54 -15 47 -8 c65 -10 87 -31
103 -96 l12 -55 8 40 c15 77 36 100 104 111 48 7 41 17 -20 28 -47 8 -64 29
-81 96 l-14 55 -7 -44z"/>
<path d="M1468 2363 c-8 -10 -57 -117 -108 -238 -51 -121 -94 -221 -95 -223
-6 -7 -135 -22 -315 -37 -107 -9 -200 -21 -207 -27 -30 -25 -9 -51 170 -204
100 -87 188 -162 194 -168 10 -9 1 -62 -43 -246 -30 -129 -54 -246 -52 -260 2
-19 10 -26 31 -28 22 -3 78 26 240 124 117 70 220 134 230 142 16 14 17 43 17
347 l0 333 33 15 c84 40 208 40 297 -1 56 -25 120 -81 155 -137 56 -86 65
-144 65 -397 0 -212 -1 -224 -20 -236 -14 -9 -20 -23 -20 -52 0 -33 -4 -41
-27 -52 -22 -10 -29 -21 -31 -51 l-3 -37 261 0 261 0 -3 43 c-2 35 -7 43 -25
45 -13 2 -23 9 -24 15 0 7 -2 25 -3 41 -1 15 -12 36 -24 46 l-22 18 0 416 0
416 24 0 c22 0 27 9 51 88 14 48 28 93 30 100 3 9 -29 12 -140 12 l-144 0 -3
103 -3 102 -366 3 c-339 2 -367 1 -381 -15z"/>
<path d="M2730 2247 c0 -22 -7 -31 -30 -40 l-29 -11 29 -13 c22 -9 30 -19 30
-38 0 -15 4 -24 10 -20 6 3 10 15 10 26 0 13 11 25 32 34 31 13 32 13 8 17
-17 2 -31 15 -42 38 l-17 35 -1 -28z"/>
</g>
</svg>
